<?xml version="1.0" standalone="no"?>
<!DOCTYPE svg PUBLIC "-//W3C//DTD SVG 20010904//EN"
 "http://www.w3.org/TR/2001/REC-SVG-20010904/DTD/svg10.dtd">
<svg version="1.0" xmlns="http://www.w3.org/2000/svg"
 width="1280.000000pt" height="1159.000000pt" viewBox="0 0 1280.000000 1159.000000"
 preserveAspectRatio="xMidYMid meet">
<metadata>
Created by potrace 1.15, written by Peter Selinger 2001-2017
</metadata>
<g transform="translate(0.000000,1159.000000) scale(0.100000,-0.100000)"
fill="#000000" stroke="none">
<path d="M9070 11579 c-405 -46 -757 -231 -890 -468 -58 -104 -141 -211 -276
-356 -198 -211 -251 -272 -324 -370 -172 -232 -246 -423 -257 -665 -14 -310
79 -603 322 -1020 179 -306 265 -552 265 -752 0 -72 -1 -74 -51 -140 -160
-214 -457 -379 -811 -452 l-111 -23 -91 29 c-262 85 -454 121 -641 122 -176 0
-356 -31 -553 -95 l-64 -21 -88 41 c-136 63 -226 82 -430 88 -99 4 -272 0
-400 -7 -276 -16 -256 -20 -579 134 -292 140 -389 178 -444 174 -52 -4 -55
-12 -56 -183 -1 -197 21 -306 138 -666 87 -269 116 -374 140 -519 32 -187 37
-305 16 -390 -14 -58 -17 -96 -12 -184 24 -419 207 -1216 382 -1661 33 -84 35
-97 35 -201 0 -61 -3 -145 -6 -187 l-7 -77 -106 -78 c-102 -77 -250 -220 -301
-292 l-25 -35 40 32 c22 18 84 68 137 111 116 94 236 177 243 170 12 -11 -38
-216 -66 -275 -50 -105 -144 -220 -323 -399 -533 -530 -1393 -1061 -2177
-1343 -171 -62 -280 -104 -389 -151 -46 -19 -97 -31 -175 -39 -368 -40 -728
-156 -888 -286 -242 -197 -329 -625 -147 -723 40 -21 52 -23 110 -17 89 10
106 9 175 -9 141 -37 297 -48 575 -41 438 10 612 28 716 75 42 18 48 18 117 3
39 -8 119 -16 177 -17 89 -1 110 2 140 20 48 28 109 110 117 157 5 34 11 41
49 58 86 36 239 60 774 119 554 61 785 98 985 156 217 63 304 120 713 471 81
70 189 157 238 191 105 75 263 154 353 177 79 20 228 20 301 0 264 -72 349
-84 610 -92 214 -6 445 4 847 37 614 51 826 50 988 -4 225 -75 632 -315 1144
-673 186 -131 758 -543 926 -669 61 -45 178 -126 260 -180 83 -55 164 -110
182 -123 39 -29 83 -25 177 18 63 29 64 29 93 10 70 -45 242 -70 563 -85 154
-7 237 5 305 44 29 17 32 17 65 -1 48 -25 189 -18 329 18 90 23 110 25 140 16
56 -18 219 -25 282 -12 91 19 150 100 165 227 6 46 14 65 35 87 40 40 55 94
39 142 -18 56 -128 160 -255 243 -61 39 -126 87 -146 106 -47 45 -140 90 -339
166 -383 144 -530 210 -660 296 -100 66 -156 119 -212 202 -166 245 -539 605
-1261 1216 -142 120 -261 226 -264 234 -9 22 9 45 43 55 16 4 193 12 394 17
329 8 450 17 612 46 l37 6 15 -53 c9 -30 27 -119 41 -199 45 -255 52 -281 97
-349 65 -100 312 -336 398 -381 35 -18 187 -15 285 6 93 20 140 20 292 -2 102
-14 118 -14 197 1 48 9 114 24 148 35 55 17 62 17 76 3 13 -13 30 -14 96 -9
45 4 91 14 103 22 62 40 3 209 -169 492 -90 147 -137 213 -202 280 -59 62 -99
85 -176 101 -30 7 -65 21 -77 33 -42 40 -107 279 -160 594 l-27 161 47 219
c86 394 100 509 100 804 0 219 -9 336 -44 540 -157 923 -722 1899 -1589 2744
-196 190 -368 337 -560 476 -381 276 -698 606 -953 988 -94 141 -116 211 -99
304 38 205 266 392 839 688 519 268 648 346 741 443 73 78 90 134 58 195 -57
109 -338 253 -596 306 -172 35 -379 44 -550 25z"/>
</g>
</svg>
